<?xml version="1.0" encoding="utf-8"?>
<!-- Generator: Adobe Illustrator 25.1.0, SVG Export Plug-In . SVG Version: 6.00 Build 0)  -->
<svg version="1.1" id="Layer_1" xmlns="http://www.w3.org/2000/svg" xmlns:xlink="http://www.w3.org/1999/xlink" x="0px" y="0px"
	 viewBox="0 0 50 50" style="enable-background:new 0 0 50 50;" xml:space="preserve">
<style type="text/css">
	.st0{fill:#DA4741;}
	.st1{fill:#FF9494;}
</style>
<g id="Group_242" transform="translate(-614 -421)">
	<g id="Group_233" transform="translate(3)">
		<g id="Group_229" transform="translate(622.133 436.901)">
			<ellipse id="Ellipse_7" class="st0" cx="4.9" cy="4.2" rx="4.9" ry="4.2"/>
			<ellipse id="Ellipse_8" class="st0" cx="22.9" cy="4.2" rx="4.9" ry="4.2"/>
		</g>
	</g>
</g>
<path class="st1" d="M25,0C11.2,0,0,11.2,0,25c0,3.8,0.8,7.4,2.4,10.6C5,41.2,9.7,45.7,15.5,48.1c1.4,0.6,2.8,1,4.3,1.3
	c1.7,0.4,3.4,0.5,5.2,0.5s3.5-0.2,5.2-0.5c1.5-0.3,2.9-0.8,4.3-1.3c5.8-2.4,10.5-6.9,13.1-12.5C49.2,32.4,50,28.8,50,25
	C50,11.2,38.8,0,25,0z M30.8,17.9c0.6-0.6,1.4-1,2.3-1c1.8,0,3.2,1.5,3.2,3.2c0,1.2-0.7,2.3-1.8,2.9c-0.4,0.2-0.9,0.4-1.5,0.4
	c-1.2,0-2.3-0.7-2.8-1.7v0c-0.2-0.5-0.4-1-0.4-1.5C29.8,19.3,30.2,18.5,30.8,17.9z M14.7,17.9c0.6-0.6,1.4-1,2.3-1h0
	c1.8,0,3.2,1.5,3.2,3.2c0,0.5-0.1,1.1-0.4,1.5v0c-0.5,1-1.6,1.7-2.8,1.7c-0.5,0-1-0.1-1.5-0.4c-1.1-0.5-1.8-1.6-1.8-2.9
	C13.7,19.3,14.1,18.5,14.7,17.9z M36.4,39.3c-0.7,0.6-1.7,0.5-2.3-0.2c-4.2-5-11.7-5.7-16.7-1.5c-0.6,0.5-1.1,1-1.5,1.5
	c-0.6,0.7-1.6,0.8-2.3,0.2c-0.7-0.6-0.8-1.6-0.2-2.3c5.3-6.4,14.8-7.3,21.2-1.9c0.7,0.6,1.3,1.2,1.9,1.9
	C37.1,37.7,37,38.8,36.4,39.3z"/>
</svg>
